<svg xmlns="http://www.w3.org/2000/svg" xmlns:xlink="http://www.w3.org/1999/xlink" xmlns:lucid="lucid" width="1222" height="82"><g transform="translate(-199 -359)" lucid:page-tab-id="bS07rrSGZgXc"><path d="M200 366a6 6 0 0 1 6-6h368a6 6 0 0 1 6 6v68a6 6 0 0 1-6 6H206a6 6 0 0 1-6-6z" stroke="#000" stroke-width="2" fill="#fff"/><use xlink:href="#a" transform="matrix(1,0,0,1,212,372) translate(141.09765625 35.52777777777778)"/><use xlink:href="#b" transform="matrix(1,0,0,1,212,372) translate(206.86371527777777 35.52777777777778)"/><path d="M620 366a6 6 0 0 1 6-6h368a6 6 0 0 1 6 6v68a6 6 0 0 1-6 6H626a6 6 0 0 1-6-6z" stroke="#000" stroke-width="2" fill="#fff"/><use xlink:href="#a" transform="matrix(1,0,0,1,632,372) translate(138.84071180555554 35.52777777777778)"/><use xlink:href="#c" transform="matrix(1,0,0,1,632,372) translate(204.60677083333331 35.52777777777778)"/><path d="M1040 366a6 6 0 0 1 6-6h368a6 6 0 0 1 6 6v68a6 6 0 0 1-6 6h-368a6 6 0 0 1-6-6z" stroke="#000" stroke-width="2" fill="#fff"/><g><use xlink:href="#a" transform="matrix(1,0,0,1,1052,372) translate(138.75390625 35.52777777777778)"/><use xlink:href="#d" transform="matrix(1,0,0,1,1052,372) translate(204.51996527777777 35.52777777777778)"/></g><defs><path d="M180 0v-1490h908v168H370v486h669v168H370v500h727V0H180" id="e"/><path d="M598-1118v154H368v674c0 100 37 144 132 144 23 0 62-6 92-12L629-6c-37 13-88 20-134 20-193 0-307-107-307-290v-688H20v-154h168v-266h180v266h230" id="f"/><path d="M471 26C259 26 90-98 90-318c0-256 228-303 435-329 202-27 287-16 287-108 0-139-79-219-234-219-161 0-248 86-283 164l-173-57c86-203 278-265 451-265 150 0 419 46 419 395V0H815v-152h-12C765-73 660 26 471 26zm31-159c199 0 310-134 310-271v-155c-30 35-226 55-295 64-131 17-246 59-246 186 0 116 97 176 231 176" id="g"/><path d="M158 418v-1536h174v179h20c37-59 106-193 324-193 279 0 474 222 474 576 0 356-194 580-473 580-213 0-288-135-325-197h-14v591H158zm492-555c209 0 317-186 317-421 0-232-105-413-317-413-206 0-314 166-314 413 0 249 111 421 314 421" id="h"/><g id="a"><use transform="matrix(0.010850694444444444,0,0,0.010850694444444444,0,0)" xlink:href="#e"/><use transform="matrix(0.010850694444444444,0,0,0.010850694444444444,13.35720486111111,0)" xlink:href="#f"/><use transform="matrix(0.010850694444444444,0,0,0.010850694444444444,20.735677083333332,0)" xlink:href="#g"/><use transform="matrix(0.010850694444444444,0,0,0.010850694444444444,33.21397569444444,0)" xlink:href="#h"/><use transform="matrix(0.010850694444444444,0,0,0.010850694444444444,47.03776041666666,0)" xlink:href="#g"/></g><path d="M653-1490V0H466v-1314h-10L96-1047v-204l324-239h233" id="i"/><use transform="matrix(0.010850694444444444,0,0,0.010850694444444444,0,0)" xlink:href="#i" id="b"/><path d="M154 0v-137l495-537c165-179 249-281 249-418 0-156-121-253-280-253-170 0-278 110-278 278H158c0-264 200-443 465-443 266 0 455 183 455 416 0 161-73 288-336 568L416-179v12h687V0H154" id="j"/><use transform="matrix(0.010850694444444444,0,0,0.010850694444444444,0,0)" xlink:href="#j" id="c"/><path d="M635 20c-292 0-500-160-510-396h192c11 142 145 229 315 229 187 0 323-105 323-260 0-161-125-274-346-274H488v-165h121c174 0 294-100 294-254 0-148-104-245-266-245-152 0-291 85-297 230H157c8-234 222-395 484-395 278 0 448 188 448 400 0 168-95 291-247 336v12c190 31 301 169 301 357 0 244-216 425-508 425" id="k"/><use transform="matrix(0.010850694444444444,0,0,0.010850694444444444,0,0)" xlink:href="#k" id="d"/></defs></g></svg>